<?xml version="1.0" standalone="no"?>
<!DOCTYPE svg PUBLIC "-//W3C//DTD SVG 20010904//EN"
 "http://www.w3.org/TR/2001/REC-SVG-20010904/DTD/svg10.dtd">
<svg version="1.0" xmlns="http://www.w3.org/2000/svg"
 width="630.000000pt" height="630.000000pt" viewBox="0 0 630.000000 630.000000"
 preserveAspectRatio="xMidYMid meet">

<g transform="translate(0.000000,630.000000) scale(0.100000,-0.100000)"
fill="#000000" stroke="none">
<path d="M1940 5694 c-168 -8 -384 -17 -480 -21 l-175 -8 -3 -122 -3 -122 33
5 c76 11 253 31 256 28 2 -1 -21 -103 -51 -226 -30 -123 -70 -285 -88 -360
l-33 -138 -31 0 c-16 0 -54 -3 -82 -6 -52 -7 -53 -7 -53 -41 0 -33 15 -153 26
-200 3 -19 11 -23 39 -23 19 0 35 -4 35 -9 0 -5 -38 -142 -84 -304 -46 -162
-87 -308 -90 -325 l-7 -29 128 -26 c70 -15 135 -27 143 -27 11 0 37 79 99 308
46 169 93 337 104 373 l19 67 75 7 c41 4 76 5 78 3 2 -2 9 -191 16 -421 11
-367 14 -417 28 -417 9 0 99 18 201 41 102 22 243 52 313 66 l128 27 -5 61
c-3 33 -10 168 -16 300 -6 132 -12 265 -15 297 l-6 56 73 17 c40 9 90 20 111
26 l37 10 0 129 c0 77 -4 130 -10 130 -5 0 -57 -7 -116 -16 -73 -11 -109 -12
-113 -5 -4 5 -20 213 -36 461 l-29 450 -55 -1 c-31 -1 -193 -8 -361 -15z
m-151 -886 c1 -45 -1 -48 -24 -48 -30 0 -30 -3 -8 84 16 61 19 65 24 40 4 -16
7 -50 8 -76z"/>
<path d="M2565 5658 c-3 -10 -25 -240 -58 -598 l-2 -25 139 -8 c77 -4 141 -9
143 -11 3 -3 -62 -749 -71 -814 l-5 -34 77 7 c42 4 84 9 93 11 12 3 21 38 38
137 13 72 26 137 30 143 3 7 73 -53 171 -148 313 -304 731 -703 739 -706 5 -2
46 48 92 110 46 62 123 167 172 232 87 117 89 120 69 135 -11 9 -194 160 -406
336 l-386 320 87 3 88 3 128 315 c71 173 131 323 134 333 5 18 -97 209 -135
254 -14 16 -54 17 -574 17 -438 0 -560 -3 -563 -12z m929 -650 c-2 -13 -6 -44
-9 -70 l-6 -48 -220 0 c-245 0 -227 -7 -208 79 l10 50 77 4 c42 1 141 4 218 5
l141 2 -3 -22z"/>
<path d="M3905 5658 c-7 -24 -138 -969 -134 -972 2 -2 120 10 262 27 141 17
259 28 261 26 2 -2 18 -255 34 -562 16 -307 32 -561 36 -564 7 -7 215 37 221
47 2 4 11 45 19 91 9 46 49 257 90 469 41 212 82 426 91 476 l17 91 86 12
c119 17 265 41 269 45 4 4 -47 798 -52 814 -3 9 -132 12 -600 12 -468 0 -596
-3 -600 -12z"/>
<path d="M2580 4078 c0 -7 -9 -114 -20 -238 -11 -124 -20 -242 -20 -262 l0
-38 105 0 104 0 10 38 c29 113 102 484 97 490 -8 8 -136 20 -218 21 -40 1 -58
-3 -58 -11z"/>
<path d="M3138 3991 c-109 -10 -200 -19 -203 -22 -7 -8 -48 -389 -42 -396 3
-3 101 -11 217 -18 116 -7 214 -15 217 -18 12 -13 -8 -37 -29 -37 -38 0 -721
-49 -723 -52 -5 -6 41 -437 47 -443 3 -3 194 30 424 74 231 44 474 91 541 103
83 16 123 27 123 36 0 13 -67 427 -76 470 l-4 22 -285 0 c-239 0 -285 2 -285
14 0 8 -3 21 -6 30 -5 14 12 16 150 16 l156 0 0 120 c0 90 -3 120 -12 119 -7
-1 -102 -9 -210 -18z"/>
<path d="M1230 3598 c0 -18 -7 -163 -15 -323 -8 -159 -15 -298 -15 -307 0 -15
9 -18 56 -18 l56 0 -6 -47 c-7 -56 -65 -642 -69 -692 -2 -32 1 -35 31 -42 19
-4 67 -10 107 -14 l73 -7 33 101 c18 56 35 101 38 101 32 1 263 28 265 31 7 7
74 284 70 288 -2 2 -61 13 -131 23 -71 11 -129 20 -130 21 -2 3 68 251 72 255
2 2 173 10 380 17 208 8 379 15 380 17 4 4 55 478 55 510 0 24 -4 27 -42 32
-46 6 -1148 86 -1185 86 -19 0 -23 -6 -23 -32z"/>
<path d="M4373 3531 c-271 -15 -496 -31 -500 -35 -6 -6 -81 -1291 -82 -1418
l-1 -38 590 0 590 0 4 23 c8 37 55 641 51 645 -4 5 -17 2 -375 -72 -118 -24
-216 -43 -218 -41 -2 1 1 18 6 36 l8 34 104 10 105 10 32 150 c18 83 32 153
33 158 0 4 -52 7 -115 7 -103 0 -115 2 -115 18 0 19 22 185 25 190 1 1 109 9
241 18 138 8 241 19 245 25 3 6 9 56 13 112 4 56 9 123 13 150 l6 47 -84 -1
c-46 -1 -306 -14 -576 -28z"/>
<path d="M3490 3085 c-96 -17 -240 -44 -320 -59 -80 -15 -148 -30 -151 -34 -6
-7 -42 -483 -37 -487 10 -10 112 -14 403 -17 l330 -3 11 130 c6 72 9 132 7
134 -2 2 -101 -14 -220 -36 -204 -37 -254 -40 -226 -12 10 10 78 23 224 43
l45 7 12 57 c7 31 15 67 18 80 6 22 5 22 -107 23 l-114 1 145 24 c80 12 148
23 151 23 4 1 14 29 23 64 10 34 20 70 22 80 7 23 -3 22 -216 -18z"/>
<path d="M2018 2913 l-148 -4 0 -84 0 -85 50 0 c33 0 50 -4 50 -12 0 -7 -18
-139 -40 -292 -22 -154 -38 -281 -35 -284 7 -8 439 20 449 29 5 4 12 62 16
129 5 67 10 124 13 127 5 4 73 -97 176 -259 l43 -68 543 0 542 0 11 88 c6 48
14 115 18 150 l7 62 -539 0 -539 0 -17 31 c-10 17 -18 34 -18 39 0 4 63 16
140 26 l140 18 0 55 c0 31 -3 120 -7 199 l-6 142 -351 -2 c-193 -1 -417 -4
-498 -5z m610 -184 l3 -36 -53 -6 c-29 -4 -83 -7 -120 -7 l-68 0 0 45 0 46
118 -3 117 -3 3 -36z"/>
<path d="M1230 1370 c0 -560 3 -711 13 -715 6 -2 149 -15 317 -30 168 -14 325
-28 350 -31 l46 -6 127 135 127 135 25 173 c13 96 43 313 66 483 l41 308 -128
129 -129 129 -427 0 -428 0 0 -710z m570 263 c0 -5 -14 -179 -30 -388 -16
-209 -30 -388 -30 -397 0 -17 -16 -18 -190 -18 -104 0 -190 3 -190 7 0 21 186
773 193 779 5 5 143 20 215 23 17 0 32 -2 32 -6z"/>
<path d="M2971 2018 c-289 -21 -527 -40 -529 -43 -5 -4 -51 -713 -52 -788 l0
-47 527 2 527 3 13 75 c7 41 38 237 68 435 30 198 57 370 60 383 7 28 44 29
-614 -20z m340 -468 c-1 -47 -4 -108 -7 -136 l-6 -52 -62 -6 c-33 -3 -119 -9
-190 -12 l-129 -7 7 79 c12 148 18 184 30 185 6 0 81 9 166 19 85 10 164 17
174 17 17 -2 19 -10 17 -87z"/>
<path d="M3780 1963 c-46 -7 -86 -16 -88 -18 -4 -4 -101 -1228 -102 -1286 l0
-25 138 17 c75 10 143 18 150 19 9 0 12 62 13 273 l1 272 24 -80 c14 -44 41
-131 60 -193 l35 -113 87 3 87 3 62 155 c34 85 68 169 75 185 11 26 14 -10 18
-265 l5 -295 65 1 c36 1 174 5 307 9 l242 7 5 62 c3 33 8 337 11 674 l6 612
-318 0 -318 0 -134 -331 c-73 -182 -136 -339 -138 -350 -3 -10 -8 -19 -12 -19
-3 0 -21 64 -40 143 -101 430 -134 557 -145 556 -6 -1 -49 -8 -96 -16z"/>
<path d="M2975 1014 c-192 -18 -414 -38 -491 -45 l-141 -12 -47 -137 c-25 -76
-46 -140 -46 -144 0 -3 284 -6 630 -6 497 0 630 3 630 13 0 12 -54 299 -65
345 -5 20 -11 22 -63 21 -31 -1 -214 -16 -407 -35z"/>
</g>
</svg>
